# xmcd CD database file
#
# Track frame offsets:
#	187
#	21215
#	41235
#	61587
#	80405
#	100057
#	117587
#	138317
#	158470
#	179482
#
# Disc length: 2660 seconds
#
# Revision: 0
# Processed by: cddbd v1.5.1PL0 Copyright (c) Steve Scherf et al.
# Submitted via: CDex 1.51
#
DISCID=7b0a620a
DTITLE=ドリームズ・カム・トゥルー - Eyes to me
DYEAR=1900
DGENRE=Jazz
TTITLE0=笑顔の行方
TTITLE1=Eyes to me
TTITLE2=未来予想図　?
TTITLE3=うれしはずかし朝帰り
TTITLE4=時間旅行
TTITLE5=うれしい！たのしい！大好き！
TTITLE6=Ｒｉｎｇ！Ｒｉｎｇ！Ｒｉｎｇ！
TTITLE7=忘れないで
TTITLE8=ＬＡＴ．４３”Ｎ
TTITLE9=さよならを待っている
EXTD=
EXTT0=
EXTT1=
EXTT2=
EXTT3=
EXTT4=
EXTT5=
EXTT6=
EXTT7=
EXTT8=
EXTT9=
PLAYORDER=
